<mxfile host="app.diagrams.net" modified="2023-04-30T01:50:59.588Z" agent="Mozilla/5.0 (Windows NT 10.0; Win64; x64) AppleWebKit/537.36 (KHTML, like Gecko) Chrome/112.0.0.0 Safari/537.36" version="21.2.1" etag="wVlrv8L_7_72UGAy5wyI" type="github">
  <diagram name="第 1 页" id="yrij8naS5dTl209tDw5m">
    <mxGraphModel>
      <root>
        <mxCell id="0" />
        <mxCell id="1" parent="0" />
      </root>
    </mxGraphModel>
  </diagram>
</mxfile>
